# xmcd
#
# Track frame offsets: 
#        150
#        16983
#        31232
#        49605
#        71189
#        83313
#        101651
#        115579
#        127842
#        144508
#        159815
#        179685
#
# Disc length: 2616 seconds
#
# Revision: 3
# Processed by: cddbd v1.5.2PL0 Copyright (c) Steve Scherf et al.
# Submitted via: ExactAudioCopy v0.99pb5
#
DISCID=8d0a360c
DTITLE=Roomful Of Blues - Dance All Night
DYEAR=1994
DGENRE=Blues
TTITLE0=That Will Never Do
TTITLE1=Lillie Mae
TTITLE2=Come Back Baby
TTITLE3=Hey Now
TTITLE4=Walkin' Slow Behind You
TTITLE5=I'm Just Your Fool
TTITLE6=You Don't Know
TTITLE7=Up The Line
TTITLE8=Cuttin' In
TTITLE9=Mister Dollar
TTITLE10=Memories Are Sweeter
TTITLE11=Back On Front Street
EXTD=YEAR: 1994
EXTT0=
EXTT1=
EXTT2=
EXTT3=
EXTT4=
EXTT5=
EXTT6=
EXTT7=
EXTT8=
EXTT9=
EXTT10=
EXTT11=
PLAYORDER=
